<?xml version="1.0" standalone="no"?>
<!DOCTYPE svg PUBLIC "-//W3C//DTD SVG 20010904//EN"
 "http://www.w3.org/TR/2001/REC-SVG-20010904/DTD/svg10.dtd">
<svg version="1.0" xmlns="http://www.w3.org/2000/svg"
 width="1280.000000pt" height="1280.000000pt" viewBox="0 0 1280.000000 1280.000000"
 preserveAspectRatio="xMidYMid meet">

<g transform="translate(0.000000,1280.000000) scale(0.100000,-0.100000)"
fill="#000000" stroke="none">
<path d="M10214 12503 c-66 -160 -266 -586 -409 -868 -170 -336 -279 -538
-450 -830 -934 -1593 -2149 -2894 -3453 -3694 -368 -226 -783 -432 -1062 -527
-47 -16 -86 -30 -88 -30 -2 -1 19 -31 46 -66 128 -169 156 -411 83 -701 l-19
-71 65 -191 c35 -104 68 -194 73 -199 10 -10 89 152 135 279 95 260 115 516
56 692 l-18 55 43 19 c26 11 44 25 44 35 0 9 15 31 34 50 34 34 35 34 124 34
l90 0 164 78 c933 445 1678 976 2417 1722 883 892 1658 2075 2140 3266 68 168
171 452 171 471 0 40 96 -23 211 -136 132 -131 210 -283 255 -491 27 -127 25
-403 -4 -568 -60 -337 -176 -670 -377 -1077 -85 -172 -259 -487 -289 -525 -20
-24 -58 -90 -52 -90 5 0 171 231 277 385 321 467 558 975 645 1380 153 714
-104 1288 -707 1580 -63 30 -118 55 -122 55 -4 0 -15 -17 -23 -37z"/>
<path d="M10847 9637 c-521 -585 -1144 -1168 -1832 -1712 -175 -139 -281 -219
-580 -440 -259 -192 -774 -535 -1085 -724 -257 -156 -252 -153 -220 -142 143
52 591 257 885 406 783 397 1446 832 2062 1355 188 160 645 614 758 754 44 55
92 113 106 130 l27 30 44 -69 c90 -141 131 -279 131 -445 0 -293 -139 -608
-433 -975 -154 -192 -430 -463 -670 -658 l-35 -28 40 22 c22 12 103 64 180
114 618 407 1004 833 1145 1264 137 421 34 845 -295 1208 -36 40 -70 73 -74
73 -5 0 -74 -74 -154 -163z"/>
<path d="M3385 8556 c-206 -32 -387 -125 -530 -272 -93 -94 -147 -175 -211
-312 -1 -1 -34 -12 -75 -23 -208 -57 -349 -184 -366 -328 l-6 -49 42 11 c30 8
56 8 98 -1 31 -6 58 -10 60 -8 2 2 -17 14 -42 26 -33 16 -55 20 -80 16 -38 -7
-42 -1 -24 36 28 62 170 122 385 161 l128 24 66 90 c88 123 149 192 228 257
204 166 434 217 685 152 334 -86 692 -366 1066 -834 50 -62 96 -122 102 -133
6 -12 13 -19 15 -16 15 15 -134 322 -222 460 -245 379 -676 710 -970 746 -113
14 -246 13 -349 -3z"/>
<path d="M2874 7547 c124 -80 207 -191 260 -351 99 -292 77 -755 -59 -1296
-40 -159 -61 -305 -107 -735 -28 -266 -31 -334 -32 -600 0 -260 3 -319 22
-440 22 -141 67 -353 77 -363 10 -11 56 44 81 97 61 127 65 152 119 601 14
118 32 271 40 340 9 69 20 166 26 215 6 50 17 140 25 200 65 509 78 646 79
820 l0 180 -37 75 c-33 66 -37 80 -28 110 10 36 46 80 66 80 20 0 22 20 13
155 -26 422 -193 732 -480 889 -61 34 -107 50 -65 23z"/>
<path d="M10545 7194 c-439 -199 -994 -417 -1396 -549 -244 -80 -531 -165
-555 -165 -8 0 -14 -4 -14 -8 0 -5 30 -14 68 -22 37 -7 96 -23 132 -35 64 -22
64 -22 153 -3 409 84 1006 272 1422 447 65 28 125 51 132 51 18 0 17 -244 -2
-330 -20 -89 -19 -90 15 -90 70 0 120 -49 120 -116 0 -34 -7 -51 -36 -85 -20
-24 -40 -53 -44 -65 -21 -54 -38 -124 -31 -124 13 0 116 159 149 230 38 82 69
183 83 268 18 113 13 304 -10 417 -24 116 -61 225 -76 224 -5 0 -55 -20 -110
-45z"/>
<path d="M4360 6420 c-96 -3 -345 -5 -552 -3 -402 5 -398 5 -363 -41 19 -25
19 -36 0 -36 -17 0 -20 -21 -5 -36 6 -6 12 -26 14 -45 2 -19 9 -81 16 -139 18
-147 9 -309 -39 -690 -22 -179 -47 -381 -56 -450 -8 -69 -33 -273 -55 -455
-22 -181 -42 -352 -46 -380 -15 -138 -72 -292 -137 -378 -43 -55 -45 -64 -16
-69 l21 -3 -21 -27 c-25 -32 -27 -48 -4 -48 13 0 14 -3 5 -12 -8 -8 -8 -17 -1
-31 8 -13 8 -17 1 -13 -30 18 -17 -27 42 -147 199 -406 511 -720 902 -908 87
-41 216 -90 222 -84 2 2 -25 22 -60 46 -137 92 -329 271 -439 409 -123 154
-233 341 -294 498 -19 50 -35 93 -35 94 0 2 35 2 78 0 82 -4 245 14 276 30 60
32 96 116 71 165 -11 22 -12 29 -2 33 16 7 15 15 -8 75 -41 103 -20 391 67
925 12 69 23 140 25 158 3 17 9 32 14 32 4 0 11 17 15 37 4 21 13 44 21 51 22
23 49 -10 103 -123 45 -94 120 -280 120 -298 0 -10 25 -70 42 -102 6 -11 13
-29 14 -40 2 -11 37 -119 78 -240 86 -254 107 -356 101 -501 -4 -91 -2 -104
15 -119 11 -10 20 -24 20 -32 0 -8 4 -11 10 -8 22 13 20 -49 -4 -157 -35 -157
-33 -168 14 -63 22 49 54 112 71 140 l31 52 42 -8 c61 -12 373 -11 463 2 89
12 104 19 144 62 26 29 29 39 28 97 -1 138 0 165 11 239 6 42 15 85 20 96 5
11 21 58 35 105 15 47 35 104 46 127 10 24 19 48 19 55 0 7 14 51 31 98 16 47
46 132 65 190 20 58 40 109 45 114 5 6 9 16 9 23 0 7 16 46 35 87 19 41 35 79
35 84 0 5 6 15 14 22 8 6 13 17 10 24 -3 8 2 20 10 29 8 8 12 18 8 21 -3 4 1
4 10 1 9 -4 18 0 21 9 15 38 57 -3 57 -55 0 -11 6 -32 14 -47 7 -15 17 -49 20
-75 4 -27 10 -59 13 -70 3 -12 7 -40 9 -62 2 -22 8 -62 15 -88 6 -26 9 -50 6
-53 -2 -3 -1 -23 4 -45 5 -22 12 -61 14 -87 6 -57 22 -184 35 -272 26 -179 19
-273 -26 -362 -20 -39 -21 -48 -9 -48 20 0 19 -19 -2 -42 -14 -16 -15 -23 -5
-39 7 -11 10 -24 7 -29 -6 -10 50 -71 81 -88 45 -24 214 -34 477 -29 310 7
357 14 410 65 28 28 36 43 32 60 -4 15 -1 22 10 22 21 0 19 18 -5 32 -23 15
-27 48 -5 48 23 0 18 15 -20 69 -19 27 -48 78 -65 113 -51 113 -52 125 -151
938 -19 151 -35 267 -37 257 -2 -10 8 -113 22 -230 54 -440 75 -615 86 -715
14 -129 41 -238 79 -314 27 -54 28 -58 10 -58 -18 0 -78 81 -79 107 0 11 -59
53 -74 53 -4 0 -2 -9 4 -19 14 -27 13 -36 -4 -22 -11 9 -15 8 -20 -4 -3 -9 -2
-14 3 -11 5 3 12 -2 15 -11 4 -10 4 -15 1 -11 -9 9 -45 -29 -45 -47 0 -9 -9
-19 -21 -23 -28 -11 -369 -9 -394 1 -16 7 -17 7 -5 -2 13 -9 13 -11 0 -11 -9
0 -21 5 -28 12 -9 9 -21 9 -50 0 -33 -10 -49 -9 -91 4 -54 18 -67 34 -27 34
14 0 36 4 49 9 20 8 23 15 19 40 -2 17 -8 34 -13 37 -5 3 -9 21 -9 40 0 19 -4
34 -10 34 -6 0 -10 28 -10 63 0 35 -7 114 -15 177 -8 63 -16 129 -17 145 -1
17 -4 34 -6 39 -3 4 -6 25 -8 45 -3 35 -8 73 -60 441 -13 96 -26 195 -29 220
-9 84 -56 399 -64 427 -11 40 -57 45 -71 8 -7 -18 -7 -33 1 -47 6 -11 8 -22 5
-26 -3 -3 -6 0 -6 6 0 7 -4 12 -10 12 -5 0 -18 -28 -29 -62 -11 -35 -52 -155
-91 -268 -39 -113 -95 -275 -125 -360 -29 -85 -71 -204 -93 -265 -85 -237
-124 -359 -138 -428 -7 -40 -18 -92 -23 -117 -9 -42 -7 -126 4 -193 3 -19 1
-27 -7 -25 -6 2 -12 12 -14 22 -3 23 -5 25 -42 36 -28 8 -34 5 -55 -21 l-23
-30 -150 -5 c-178 -6 -315 5 -322 25 -3 10 0 12 12 8 9 -4 16 -2 16 3 0 6 -7
10 -16 10 -10 0 -14 6 -10 15 3 9 0 15 -8 15 -7 0 -21 20 -30 45 -10 25 -21
45 -26 45 -4 0 -8 10 -7 23 2 68 -59 289 -118 432 -7 17 -18 48 -23 70 -14 52
-180 512 -195 539 -6 12 -10 24 -9 28 1 6 -107 317 -127 363 -4 11 -21 54 -37
95 -25 65 -33 75 -55 78 -20 2 -28 -2 -32 -20 -4 -12 -2 -27 3 -32 13 -13 13
-29 0 -21 -12 8 -16 -11 -35 -175 -9 -74 -20 -164 -25 -200 -6 -36 -17 -119
-24 -185 -8 -66 -33 -259 -55 -430 -52 -394 -56 -556 -16 -676 9 -27 13 -33
10 -14 -3 17 -7 91 -10 165 l-4 135 14 -159 c10 -111 19 -166 31 -185 9 -14
11 -20 3 -13 -7 6 -23 12 -36 12 -14 0 -23 6 -23 15 0 8 -8 15 -17 15 -12 0
-14 3 -6 8 7 5 10 22 6 48 -5 37 -8 40 -29 36 -23 -4 -40 -23 -44 -47 -1 -5
-8 -9 -17 -7 -11 3 -13 -2 -8 -19 5 -14 4 -19 -4 -15 -6 4 -11 2 -11 -5 0 -7
11 -10 30 -7 19 3 29 1 27 -6 -5 -14 -79 -15 -90 -2 -6 8 -10 8 -13 0 -4 -10
-143 -10 -171 1 -6 2 -14 -1 -17 -8 -2 -7 -5 -5 -5 4 -1 9 -9 20 -18 24 -15 5
-16 4 -5 -6 6 -7 12 -17 12 -22 0 -10 -79 -1 -89 9 -3 4 4 4 17 1 19 -5 23 -2
20 16 -3 19 -9 22 -45 21 -24 0 -43 3 -43 8 0 4 8 8 18 8 12 1 9 5 -10 16 -37
20 -35 25 4 13 52 -14 68 -12 65 11 -2 11 -5 21 -8 24 -10 11 -1 303 14 421
16 127 53 491 63 610 2 33 6 71 8 85 4 23 49 408 92 784 13 112 14 151 6 154
-8 2 -12 31 -12 82 0 43 -7 115 -16 160 -8 45 -13 84 -11 87 8 8 37 -133 38
-184 0 -26 4 -68 9 -93 6 -29 7 19 4 138 -5 171 -4 182 13 182 10 0 59 3 108
7 103 9 501 10 748 3 l167 -4 0 -79 c0 -84 43 -328 55 -315 2 2 -3 32 -10 68
-19 91 -30 240 -18 240 6 0 13 -46 17 -102 3 -57 13 -134 22 -173 9 -38 17
-80 18 -92 0 -11 3 -20 6 -18 6 4 10 -7 144 -395 150 -433 158 -455 174 -473
24 -27 25 -14 1 44 -28 71 -32 81 -234 664 -42 121 -85 256 -96 300 -26 110
-36 274 -18 316 10 25 10 34 1 37 -7 2 -12 10 -12 18 0 21 -20 17 -48 -8 -14
-13 -22 -17 -17 -9 5 9 4 12 -3 7 -19 -11 -1031 -7 -1053 4 -10 6 -19 15 -19
20 0 6 207 10 559 10 308 0 566 3 575 6 9 3 16 11 16 18 0 14 -50 15 -280 6z
m-833 -532 c-3 -7 -5 -2 -5 12 0 14 2 19 5 13 2 -7 2 -19 0 -25z m2313 -633
c12 -93 26 -206 31 -250 4 -44 31 -260 60 -480 28 -220 52 -436 54 -480 l4
-80 -13 95 c-8 52 -48 370 -90 705 -42 336 -79 626 -82 645 -4 24 -3 32 4 25
6 -5 20 -86 32 -180z m-1315 -1306 c9 -53 15 -105 13 -115 -3 -11 -8 4 -12 31
-4 28 -14 80 -22 117 -8 37 -14 75 -13 85 1 34 15 -17 34 -118z m757 -149 c2
-30 -1 -49 -7 -47 -13 5 -19 97 -7 97 6 0 12 -23 14 -50z m-2012 30 c0 -5 -2
-10 -4 -10 -3 0 -8 5 -11 10 -3 6 -1 10 4 10 6 0 11 -4 11 -10z m-100 -55 c-7
-9 -15 -13 -18 -10 -3 2 1 11 8 20 7 9 15 13 18 10 3 -2 -1 -11 -8 -20z m10
-55 c-20 -13 -33 -13 -25 0 3 6 14 10 23 10 15 0 15 -2 2 -10z m1354 -4 c-21
-15 -30 -14 -19 3 3 6 14 11 23 11 13 0 13 -2 -4 -14z m1416 4 c-20 -13 -33
-13 -25 0 3 6 14 10 23 10 15 0 15 -2 2 -10z"/>
<path d="M5360 6422 c0 -6 5 -23 12 -37 10 -21 9 -28 -2 -35 -11 -7 -12 -13
-1 -36 14 -33 16 -206 2 -280 -6 -29 -23 -92 -40 -140 -49 -148 -175 -508
-246 -704 -37 -102 -67 -195 -66 -207 1 -28 -15 -38 -34 -23 -20 17 -19 -4 1
-24 8 -9 20 -16 25 -16 15 0 56 72 75 130 9 30 21 63 25 72 5 10 54 147 110
305 195 556 213 617 225 796 4 54 12 100 17 104 6 3 7 1 3 -5 -4 -7 -3 -12 3
-12 5 0 12 4 15 9 12 19 901 21 958 2 l36 -12 -5 -172 c-4 -125 -1 -210 11
-312 9 -77 28 -230 41 -340 39 -321 84 -703 110 -935 36 -312 63 -499 80 -550
10 -28 13 -34 11 -15 -9 52 -63 488 -120 970 -45 373 -97 798 -106 873 -6 40
-9 119 -9 175 l2 102 8 -115 c4 -63 12 -140 17 -170 7 -47 9 -34 10 85 2 200
19 385 37 405 20 22 19 27 -6 33 -20 5 -20 6 -3 32 l17 26 -29 -13 c-16 -7
-32 -17 -36 -23 -5 -7 -188 -10 -537 -10 l-531 0 -25 27 c-14 16 -20 23 -13
18 8 -6 215 -10 568 -10 474 0 559 2 576 15 17 13 -49 14 -561 15 -319 0 -590
3 -602 6 -14 4 -23 2 -23 -4z m68 -227 l-1 -60 -7 60 c-4 33 -10 78 -13 100
l-6 40 13 -40 c8 -22 14 -67 14 -100z"/>
<path d="M7010 6416 c0 -8 4 -17 9 -20 5 -3 14 -20 20 -36 9 -29 9 -30 -10
-19 -28 15 -36 3 -14 -21 10 -11 19 -34 21 -52 2 -18 10 -64 19 -103 53 -237
54 -268 55 -1255 2 -1019 3 -1001 -70 -1137 -35 -66 -37 -73 -20 -73 25 0 25
-12 0 -35 -24 -21 -26 -45 -5 -45 13 0 14 -4 4 -22 -10 -19 -7 -26 33 -64 59
-56 85 -59 463 -59 354 0 397 6 457 66 29 29 38 44 33 59 -5 14 -2 20 9 20 22
0 20 16 -4 40 -24 24 -26 40 -5 40 16 0 21 36 6 42 -20 7 -60 109 -76 193 -18
98 -14 251 9 296 21 43 51 49 303 59 252 10 397 32 528 80 33 12 70 24 83 27
12 3 22 9 22 13 0 11 37 24 170 60 128 35 325 126 405 187 l50 39 3 182 2 181
-68 -67 c-37 -37 -89 -86 -115 -109 -45 -40 -46 -41 -32 -13 9 17 13 30 10 30
-3 0 0 10 7 23 7 12 11 25 10 28 0 4 3 22 9 40 28 99 43 308 30 454 -4 55 -9
82 -10 60 -2 -59 -17 -24 -25 60 -3 39 -13 95 -21 125 -8 30 -12 39 -9 20 2
-19 7 -107 10 -195 5 -123 2 -181 -10 -251 -17 -102 -66 -255 -78 -248 -4 3
-5 -1 -2 -9 6 -17 -66 -166 -90 -186 -23 -20 -20 -8 14 45 16 26 28 50 25 52
-2 2 -32 -25 -67 -61 -73 -77 -190 -151 -304 -195 -164 -63 -392 -92 -731 -92
-166 0 -172 -1 -188 -22 -14 -21 -14 -23 2 -30 17 -6 17 -7 -1 -7 -17 -1 -18
-13 -13 -258 4 -224 8 -268 27 -338 12 -44 25 -84 29 -88 5 -5 2 15 -5 43 -25
98 -34 203 -32 398 l1 197 8 -215 c8 -241 21 -346 53 -436 l22 -61 -24 5 c-13
3 -26 11 -29 18 -3 8 -14 14 -25 14 -11 0 -35 12 -54 26 -31 24 -34 25 -34 8
0 -37 -16 -46 -96 -52 -88 -7 -358 -8 -417 -2 -35 3 -36 4 -20 22 25 28 11 30
-21 3 -16 -14 -31 -25 -33 -25 -2 0 -24 10 -48 21 -52 25 -54 37 -3 16 28 -12
37 -12 52 -2 13 10 15 18 8 32 -10 19 -31 127 -31 153 1 8 -2 454 -6 990 -6
946 -10 1051 -38 1248 -8 50 -11 92 -8 93 3 0 22 2 41 5 19 3 158 5 308 5 162
0 272 4 272 10 0 5 -125 9 -310 9 -243 0 -318 3 -344 14 -19 8 -36 18 -39 22
-3 5 311 7 696 4 671 -6 707 -7 814 -28 401 -79 631 -280 737 -642 32 -109 33
-81 2 42 -43 169 -129 320 -229 402 -168 137 -398 222 -674 246 -130 12 -1357
15 -1375 4 -7 -4 -8 -3 -4 4 4 7 1 12 -8 12 -9 0 -16 -6 -16 -14z m131 -333
c18 -83 19 -148 16 -1048 l-2 -960 -5 975 c-5 866 -8 983 -23 1050 -19 85 -19
86 -11 77 4 -4 15 -46 25 -94z m-17 -2309 c4 -10 1 -14 -6 -12 -15 5 -23 28
-10 28 5 0 13 -7 16 -16z m589 -11 c-7 -2 -19 -2 -25 0 -7 3 -2 5 12 5 14 0
19 -2 13 -5z m-628 -43 c-3 -5 -14 -10 -23 -10 -15 0 -15 2 -2 10 20 13 33 13
25 0z"/>
<path d="M9517 6416 c-5 -14 15 -41 24 -32 2 2 5 -10 6 -27 2 -23 0 -28 -9
-19 -7 7 -16 12 -20 12 -14 0 -9 -27 7 -40 8 -7 15 -24 15 -38 0 -14 4 -39 9
-56 16 -53 51 -248 59 -326 4 -41 7 -487 7 -990 0 -844 -1 -921 -18 -989 -18
-73 -57 -164 -77 -176 -18 -11 -11 -35 11 -35 l20 0 -20 -29 c-23 -32 -27 -51
-10 -51 6 0 8 -9 4 -20 -10 -30 56 -90 119 -108 79 -22 560 -28 690 -9 92 14
101 18 137 53 23 22 39 48 39 61 0 13 5 23 10 23 15 0 12 27 -4 33 -7 3 -16
15 -19 26 -4 16 0 21 13 21 23 0 21 17 -6 55 -27 38 -60 141 -74 225 -16 103
-12 1751 5 1920 20 195 52 370 76 402 24 34 24 38 -1 38 -26 0 -26 22 0 45 11
10 17 22 13 28 -3 5 -10 3 -15 -7 -5 -9 -15 -16 -23 -16 -8 0 -18 -8 -24 -17
-9 -17 -42 -18 -424 -21 l-415 -3 -27 23 -26 23 433 -3 c429 -3 498 0 498 19
0 6 -173 8 -480 7 -264 -2 -480 0 -480 5 0 13 -18 8 -23 -7z m870 -92 c30 -6
31 -25 7 -144 -21 -102 -22 -136 -29 -1070 -7 -989 -6 -1049 31 -1189 7 -30
17 -57 20 -60 4 -3 4 3 1 14 -24 80 -27 213 -25 1120 l2 970 6 -995 c6 -964 7
-998 27 -1080 11 -47 24 -96 28 -108 7 -21 5 -23 -15 -20 -19 2 -28 17 -52 88
-15 46 -28 92 -28 101 0 9 -7 32 -16 50 -9 20 -13 24 -10 12 2 -13 1 -23 -3
-23 -4 0 -6 -12 -5 -27 3 -39 4 -41 14 -18 8 18 9 17 9 -7 1 -17 -5 -29 -17
-32 -10 -3 -18 -14 -19 -23 -4 -44 -9 -59 -28 -75 -15 -13 -16 -17 -5 -18 11
0 11 -3 2 -12 -15 -15 -382 -18 -421 -4 -16 5 -21 5 -17 -2 8 -14 -94 -8 -122
7 -11 6 -29 11 -40 11 -10 0 -27 9 -37 20 -21 23 -17 24 22 9 15 -6 43 -7 61
-4 28 5 32 8 19 18 -8 7 -19 28 -25 47 -26 88 -26 101 -37 1375 -5 715 -7 781
-27 917 -12 81 -19 151 -15 154 4 4 13 1 22 -6 8 -7 15 -8 15 -3 0 6 51 11
117 12 65 1 120 4 122 7 6 5 437 -5 468 -12z m-727 -320 c10 -76 15 -1583 5
-1572 -3 3 -5 336 -6 742 0 733 -1 752 -34 961 -3 20 1 15 10 -13 8 -24 19
-77 25 -118z m9 -1631 c-2 -46 -2 -47 -8 -13 -4 19 -5 41 -3 48 8 24 12 11 11
-35z m-2 -165 c-2 -24 -4 -7 -4 37 0 44 2 63 4 43 2 -21 2 -57 0 -80z m-82
-488 c-3 -5 -11 -10 -16 -10 -6 0 -7 5 -4 10 3 6 11 10 16 10 6 0 7 -4 4 -10z"/>
<path d="M9778 3793 c6 -2 18 -2 25 0 6 3 1 5 -13 5 -14 0 -19 -2 -12 -5z"/>
<path d="M7770 6346 c0 -2 7 -6 15 -10 8 -3 15 -1 15 4 0 6 -7 10 -15 10 -8 0
-15 -2 -15 -4z"/>
<path d="M7938 6343 c56 -2 148 -2 205 0 56 1 10 3 -103 3 -113 0 -159 -2
-102 -3z"/>
<path d="M8266 6340 c36 -14 117 -15 121 -3 3 8 -18 12 -69 11 -47 0 -66 -3
-52 -8z"/>
<path d="M8400 6339 c0 -7 139 -23 146 -16 2 2 -30 8 -71 13 -41 5 -75 7 -75
3z"/>
<path d="M8560 6320 c0 -4 9 -10 20 -13 11 -3 20 -2 20 3 0 4 -9 10 -20 13
-11 3 -20 2 -20 -3z"/>
<path d="M8640 6301 c0 -3 20 -11 45 -17 25 -6 42 -7 38 -3 -12 11 -83 28 -83
20z"/>
<path d="M8850 6220 c0 -6 7 -10 15 -10 8 0 15 2 15 4 0 2 -7 6 -15 10 -8 3
-15 1 -15 -4z"/>
<path d="M8900 6190 c-9 -6 -10 -10 -3 -10 6 0 15 5 18 10 8 12 4 12 -15 0z"/>
<path d="M7879 5934 c-12 -14 -14 -92 -17 -461 -2 -298 1 -443 7 -443 7 0 12
138 14 413 l2 412 3 -417 2 -418 28 -7 c15 -5 97 -8 182 -7 136 0 162 3 213
23 32 13 74 37 93 54 32 27 94 108 94 121 0 2 -24 -19 -52 -48 -93 -92 -157
-112 -393 -122 -138 -6 -158 -5 -148 7 8 10 12 82 13 240 0 236 10 333 34 357
9 9 52 19 111 26 221 24 366 -48 447 -221 26 -56 30 -72 25 -119 -3 -31 -11
-62 -18 -70 -6 -8 -13 -31 -15 -50 -1 -22 -15 -52 -35 -78 l-32 -41 46 44 c94
90 145 245 128 393 -17 146 -56 232 -144 316 -30 27 -80 63 -113 78 -58 28
-64 28 -260 32 -181 3 -202 2 -215 -14z m461 -35 c48 -25 29 -23 -60 6 -72 24
-73 24 -25 19 27 -3 66 -14 85 -25z m258 -444 l-1 -40 -7 40 c-4 22 -10 58
-13 80 l-6 40 13 -40 c8 -22 14 -58 14 -80z"/>
<path d="M6532 5735 c-1 -39 45 -398 47 -363 1 26 -22 234 -38 338 -5 30 -9
42 -9 25z"/>
<path d="M9463 5590 c-19 -8 -23 -17 -23 -50 0 -22 2 -40 4 -40 1 0 17 5 35
11 28 10 31 15 31 50 0 41 -7 45 -47 29z"/>
<path d="M9341 5574 c0 -11 3 -14 6 -6 3 7 2 16 -1 19 -3 4 -6 -2 -5 -13z"/>
<path d="M8120 5333 c19 -9 90 -35 157 -59 121 -43 123 -43 134 -23 6 12 7 24
2 28 -4 4 -44 13 -88 20 -44 7 -113 21 -153 32 -85 22 -100 23 -52 2z"/>
<path d="M9454 5342 c-6 -4 -16 -38 -22 -77 -6 -38 -14 -85 -18 -104 l-7 -33
34 7 c73 14 69 7 69 116 0 96 -1 99 -22 99 -13 0 -28 -4 -34 -8z"/>
<path d="M6582 5305 c0 -22 3 -60 7 -85 l8 -45 1 45 c1 25 -3 63 -7 85 l-9 40
0 -40z"/>
<path d="M6603 5135 c0 -22 2 -30 4 -17 2 12 2 30 0 40 -3 9 -5 -1 -4 -23z"/>
<path d="M6726 5013 c15 -130 17 -137 49 -145 17 -4 71 -16 120 -28 50 -11 98
-23 108 -26 15 -5 17 5 17 110 l0 114 -27 6 c-16 3 -59 8 -98 11 -38 3 -94 8
-123 11 l-52 5 6 -58z"/>
<path d="M8398 5013 c7 -3 16 -2 19 1 4 3 -2 6 -13 5 -11 0 -14 -3 -6 -6z"/>
<path d="M8323 4993 c-13 -2 -23 -11 -23 -19 0 -8 -9 -14 -22 -13 -22 0 -22 1
-3 9 17 7 17 9 3 9 -10 1 -27 -8 -38 -19 -19 -19 -22 -19 -43 -5 -15 10 -46
15 -101 15 l-79 0 22 -24 c16 -17 32 -23 53 -22 17 1 50 -1 73 -4 29 -4 49 -2
61 7 10 7 28 13 40 13 35 0 53 10 47 26 -3 8 -2 14 3 13 25 -4 64 2 64 11 0
10 -16 11 -57 3z"/>
<path d="M9181 4959 c-7 -12 -10 -23 -8 -26 3 -3 11 5 17 17 15 28 8 35 -9 9z"/>
<path d="M7960 4962 c0 -4 14 -16 30 -25 32 -19 36 -17 20 14 -10 18 -50 27
-50 11z"/>
<path d="M8218 4963 c7 -3 16 -2 19 1 4 3 -2 6 -13 5 -11 0 -14 -3 -6 -6z"/>
<path d="M5698 4898 c5 -21 3 -21 38 -8 32 12 24 25 -15 25 -22 0 -27 -4 -23
-17z"/>
<path d="M5680 4706 l-45 -12 -52 -154 c-29 -85 -51 -156 -49 -158 2 -2 21 5
43 16 21 10 80 34 131 52 105 37 99 23 80 173 -14 110 -12 109 -108 83z"/>
<path d="M6780 4581 c0 -27 1 -28 98 -44 53 -9 108 -20 122 -23 40 -11 11 11
-40 29 -25 9 -75 27 -112 41 l-68 25 0 -28z"/>
<path d="M4181 4482 c-86 -224 -115 -376 -116 -607 0 -207 16 -316 72 -484 33
-101 120 -288 129 -279 2 3 -5 30 -15 61 -30 87 -61 250 -73 381 -19 213 20
476 100 675 l29 75 -44 125 c-24 69 -46 127 -48 129 -2 2 -17 -33 -34 -76z"/>
<path d="M6644 4170 c0 -13 4 -16 10 -10 7 7 7 13 0 20 -6 6 -10 3 -10 -10z"/>
<path d="M6661 4054 c0 -11 3 -14 6 -6 3 7 2 16 -1 19 -3 4 -6 -2 -5 -13z"/>
<path d="M3751 4034 c0 -11 3 -14 6 -6 3 7 2 16 -1 19 -3 4 -6 -2 -5 -13z"/>
<path d="M7825 3985 c-5 -38 -7 -76 -6 -82 1 -7 -6 -13 -15 -13 -11 0 -2 -13
27 -40 63 -58 69 -55 45 23 -7 25 -11 48 -8 51 3 4 0 6 -6 6 -7 0 -12 16 -13
38 -1 20 -4 48 -8 62 -6 19 -9 9 -16 -45z"/>
<path d="M6650 4010 c0 -5 6 -11 13 -13 9 -4 8 -6 -2 -6 -11 -1 -11 -4 0 -18
8 -10 9 -14 2 -10 -6 4 -14 3 -17 -2 -4 -5 4 -13 16 -17 13 -4 26 -12 30 -18
14 -21 16 0 5 41 -6 26 -18 43 -29 46 -10 3 -18 1 -18 -3z"/>
<path d="M3746 3995 c-3 -8 -2 -23 1 -32 5 -13 2 -15 -12 -10 -16 7 -17 6 -2
-17 15 -23 15 -25 -6 -40 -12 -8 -17 -15 -11 -15 7 -1 22 8 35 18 22 17 23 22
12 51 -6 17 -9 38 -6 46 3 8 3 14 0 14 -3 0 -7 -7 -11 -15z"/>
<path d="M5211 3942 c0 -18 -4 -31 -8 -29 -5 3 -9 -6 -9 -19 -1 -16 3 -24 15
-24 14 0 16 8 13 38 -5 57 -10 71 -11 34z"/>
<path d="M5197 3839 c7 -7 15 -10 18 -7 3 3 -2 9 -12 12 -14 6 -15 5 -6 -5z"/>
<path d="M6125 3800 c-3 -5 -1 -10 4 -10 6 0 11 5 11 10 0 6 -2 10 -4 10 -3 0
-8 -4 -11 -10z"/>
<path d="M6050 3796 c0 -9 39 -13 51 -5 10 6 4 9 -18 9 -18 0 -33 -2 -33 -4z"/>
<path d="M9378 3143 c7 -3 16 -2 19 1 4 3 -2 6 -13 5 -11 0 -14 -3 -6 -6z"/>
<path d="M6526 3058 c10 -14 21 -24 23 -22 3 3 -6 15 -18 27 l-24 22 19 -27z"/>
<path d="M8790 3041 c0 -6 4 -13 10 -16 6 -3 7 1 4 9 -7 18 -14 21 -14 7z"/>
</g>
</svg>
